# xmcd
# 
# Track frame offsets:
#     150
#     11777
#     23472
#     35695
#     48477
#     62120
#     72162
#     81612
#     95162
#     112017
#     127622
#     140512
# 
# Disc length: 2018
# 
# Revision: 8
# Processed by: cddbd v1.5.2PL0 Copyright (c) Steve Scherf et al.
# Submitted via: BonkEnc v1.0.8
# 
DISCID=a707e00c
DTITLE=Patsy Cline - 12 Greatest Hits
DYEAR=1988
DGENRE=Country
TTITLE0=Walkin' After Midnight
TTITLE1=Sweet Dreams (Of You)
TTITLE2=Crazy
TTITLE3=I Fall To Pieces
TTITLE4=So Wrong
TTITLE5=Strange
TTITLE6=Back In Baby's Arms
TTITLE7=She's Got You
TTITLE8=Faded Love
TTITLE9=Why Can't He Be You
TTITLE10=You're Stronger Than Me
TTITLE11=Leavin' On Your Mind
EXTD=UPC 0767422142278
EXTT0=
EXTT1=
EXTT2=
EXTT3=
EXTT4=
EXTT5=
EXTT6=
EXTT7=
EXTT8=
EXTT9=
EXTT10=
EXTT11=
PLAYORDER=
